
<svg xmlns="http://www.w3.org/2000/svg" width="64" height="64" viewBox="0 0 64 64" fill="none">
  <path d="M32 58.6667C46.7276 58.6667 58.6667 46.7276 58.6667 32C58.6667 17.2724 46.7276 5.33334 32 5.33334C17.2724 5.33334 5.33334 17.2724 5.33334 32C5.33334 46.7276 17.2724 58.6667 32 58.6667Z" fill="#E3F9C5" stroke="#6BB80E" stroke-width="2" stroke-linecap="round" stroke-linejoin="round"/>
  <path d="M21.3333 29.3333C23.1743 29.3333 24.6667 27.841 24.6667 26C24.6667 24.159 23.1743 22.6667 21.3333 22.6667C19.4924 22.6667 18 24.159 18 26C18 27.841 19.4924 29.3333 21.3333 29.3333Z" fill="#6BB80E"/>
  <path d="M42.6667 29.3333C44.5076 29.3333 46 27.841 46 26C46 24.159 44.5076 22.6667 42.6667 22.6667C40.8257 22.6667 39.3333 24.159 39.3333 26C39.3333 27.841 40.8257 29.3333 42.6667 29.3333Z" fill="#6BB80E"/>
  <path d="M42.6667 42.6667C42.6667 37.3333 37.3333 33.3333 32 33.3333C26.6667 33.3333 21.3333 37.3333 21.3333 42.6667" stroke="#6BB80E" stroke-width="2" stroke-linecap="round" stroke-linejoin="round"/>
</svg>
